<svg width="29" height="29" viewBox="0 0 29 29" fill="none" xmlns="http://www.w3.org/2000/svg">
<rect width="29" height="29" rx="5" fill="#F3353E"/>
<path d="M18.982 7.25302L16.4749 7.25C13.6583 7.25 11.8381 8.65063 11.8381 10.8185C11.8381 11.7271 11.1014 12.4638 10.1928 12.4638H9.31728C9.09946 12.4638 8.92307 12.5962 8.92307 12.7596V15.1434C8.92307 15.3068 9.09966 15.4391 9.31728 15.4391C10.7095 15.4391 11.8381 16.5677 11.8381 17.9599V21.4543C11.8381 21.6177 12.0145 21.75 12.2323 21.75H15.5212C15.739 21.75 15.9154 21.6176 15.9154 21.4543V18.3865C15.9154 16.7587 17.235 15.4391 18.8628 15.4391C19.0806 15.4391 19.257 15.3068 19.257 15.1434L19.2582 12.7596C19.2582 12.6811 19.2166 12.606 19.1427 12.5505C19.0689 12.495 18.9684 12.4638 18.8638 12.4638H17.3101C16.5398 12.4638 15.9154 11.8393 15.9154 11.069C15.9154 10.3987 16.1284 10.0583 17.2927 10.0583L18.9816 10.0579C19.1993 10.0579 19.3757 9.92545 19.3757 9.76223V7.54868C19.3757 7.38561 19.1995 7.25332 18.982 7.25302Z" fill="white"/>
</svg>
