<svg width="29" height="29" viewBox="0 0 29 29" fill="none" xmlns="http://www.w3.org/2000/svg">
<rect width="29" height="29" rx="5" fill="#2F3D53"/>
<rect x="7.25" y="11.6" width="2.9" height="10.15" rx="1.45" fill="white"/>
<path d="M21.4246 12.7363C20.7246 11.9788 19.7986 11.6 18.6474 11.6C18.2232 11.6 17.8377 11.6517 17.4909 11.7552C17.1442 11.8586 16.8514 12.0038 16.6123 12.1906C16.3733 12.3775 16.183 12.551 16.0417 12.7111C15.9139 12.8558 15.6478 12.7731 15.6478 12.58V12.1493C15.6478 11.973 15.5049 11.8301 15.3286 11.8301H12.8057C12.5419 11.8301 12.3296 12.0469 12.3352 12.3106C12.342 12.631 12.3454 13.6186 12.3454 15.2735C12.3454 16.5687 12.3413 18.1723 12.333 20.0844C12.329 21.0029 13.0722 21.75 13.9907 21.75C14.9059 21.75 15.6478 21.0081 15.6478 20.0929V16.2144C15.6478 15.8741 15.6846 15.6039 15.7588 15.4035C15.9003 15.063 16.1139 14.7779 16.4002 14.5478C16.6865 14.3174 17.0415 14.2023 17.4658 14.2023C18.0447 14.2023 18.4707 14.4008 18.7434 14.7979C19.016 15.1949 19.1524 15.7438 19.1524 16.4445V20.0884C19.1524 21.0059 19.8962 21.7497 20.8137 21.7497C21.7312 21.7497 22.475 21.0059 22.475 20.0884V16.0644C22.4748 14.6028 22.1249 13.4935 21.4246 12.7363Z" fill="white"/>
<path d="M9.07219 7.25C8.53016 7.25 8.09097 7.42149 7.75452 7.76412C7.41811 8.10684 7.25 8.5395 7.25 9.06254C7.25 9.57826 7.41327 10.0094 7.73984 10.3556C8.0663 10.7018 8.49742 10.875 9.03297 10.875H9.05256C9.60124 10.875 10.0438 10.702 10.3801 10.3556C10.7164 10.0094 10.8813 9.57841 10.8748 9.06254C10.8683 8.53954 10.7016 8.10684 10.3752 7.76412C10.0487 7.42134 9.61425 7.25 9.07219 7.25Z" fill="white"/>
</svg>
