<svg width="80" height="80" viewBox="0 0 80 80" fill="none" xmlns="http://www.w3.org/2000/svg">
<circle cx="40" cy="40" r="40" fill="#052442"/>
<path d="M28.9101 31.944C29.1501 30.312 29.5981 28.88 30.2541 27.648C30.9261 26.416 31.7661 25.392 32.7741 24.576C33.7821 23.744 34.9341 23.12 36.2301 22.704C37.5421 22.272 38.9581 22.056 40.4781 22.056C42.0141 22.056 43.4061 22.28 44.6541 22.728C45.9181 23.16 46.9981 23.768 47.8941 24.552C48.8061 25.336 49.5021 26.272 49.9821 27.36C50.4781 28.448 50.7261 29.64 50.7261 30.936C50.7261 32.04 50.5901 33.016 50.3181 33.864C50.0621 34.696 49.6861 35.432 49.1901 36.072C48.7101 36.712 48.1181 37.248 47.4141 37.68C46.7101 38.112 45.9181 38.472 45.0381 38.76C47.1821 39.384 48.7901 40.384 49.8621 41.76C50.9341 43.12 51.4701 44.832 51.4701 46.896C51.4701 48.56 51.1581 50.04 50.5341 51.336C49.9101 52.632 49.0621 53.728 47.9901 54.624C46.9341 55.52 45.6941 56.208 44.2701 56.688C42.8621 57.152 41.3661 57.384 39.7821 57.384C38.0061 57.384 36.4701 57.176 35.1741 56.76C33.8781 56.328 32.7581 55.72 31.8141 54.936C30.8861 54.136 30.1101 53.176 29.4861 52.056C28.8621 50.936 28.3341 49.68 27.9021 48.288L30.1341 47.352C30.7261 47.096 31.2861 47.024 31.8141 47.136C32.3581 47.248 32.7501 47.544 32.9901 48.024C33.2461 48.536 33.5341 49.088 33.8541 49.68C34.1741 50.256 34.5821 50.792 35.0781 51.288C35.5901 51.768 36.2141 52.176 36.9501 52.512C37.7021 52.832 38.6221 52.992 39.7101 52.992C40.8141 52.992 41.7741 52.816 42.5901 52.464C43.4221 52.096 44.1101 51.632 44.6541 51.072C45.2141 50.496 45.6301 49.856 45.9021 49.152C46.1741 48.448 46.3101 47.752 46.3101 47.064C46.3101 46.2 46.2061 45.408 45.9981 44.688C45.7901 43.952 45.3821 43.328 44.7741 42.816C44.1821 42.304 43.3341 41.904 42.2301 41.616C41.1421 41.312 39.7101 41.16 37.9341 41.16V37.44C39.3901 37.424 40.6141 37.28 41.6061 37.008C42.6141 36.72 43.4141 36.336 44.0061 35.856C44.6141 35.36 45.0461 34.768 45.3021 34.08C45.5741 33.392 45.7101 32.64 45.7101 31.824C45.7101 30.944 45.5741 30.168 45.3021 29.496C45.0301 28.824 44.6461 28.264 44.1501 27.816C43.6701 27.352 43.0941 27.008 42.4221 26.784C41.7501 26.56 41.0061 26.448 40.1901 26.448C39.4061 26.448 38.6781 26.56 38.0061 26.784C37.3501 27.008 36.7581 27.32 36.2301 27.72C35.7181 28.12 35.2861 28.6 34.9341 29.16C34.5821 29.704 34.3261 30.304 34.1661 30.96C33.9421 31.616 33.6381 32.056 33.2541 32.28C32.8861 32.504 32.3421 32.552 31.6221 32.424L28.9101 31.944Z" fill="white"/>
</svg>
