<svg width="80" height="80" viewBox="0 0 80 80" fill="none" xmlns="http://www.w3.org/2000/svg">
<circle cx="40" cy="40" r="40" fill="#052442"/>
<path d="M49.6941 52.128C50.2541 52.128 50.6941 52.296 51.0141 52.632C51.3341 52.952 51.4941 53.368 51.4941 53.88V57H28.1181V55.248C28.1181 54.896 28.1901 54.528 28.3341 54.144C28.4781 53.76 28.7101 53.408 29.0301 53.088L39.7821 42.312C40.6941 41.4 41.5021 40.528 42.2061 39.696C42.9261 38.864 43.5341 38.032 44.0301 37.2C44.5421 36.368 44.9261 35.528 45.1821 34.68C45.4541 33.816 45.5901 32.912 45.5901 31.968C45.5901 31.056 45.4461 30.256 45.1581 29.568C44.8861 28.864 44.5021 28.288 44.0061 27.84C43.5261 27.376 42.9421 27.032 42.2541 26.808C41.5821 26.568 40.8381 26.448 40.0221 26.448C39.2381 26.448 38.5101 26.56 37.8381 26.784C37.1821 27.008 36.5901 27.32 36.0621 27.72C35.5501 28.12 35.1181 28.6 34.7661 29.16C34.4301 29.704 34.1821 30.304 34.0221 30.96C33.7821 31.616 33.4701 32.056 33.0861 32.28C32.7181 32.504 32.1741 32.552 31.4541 32.424L28.7421 31.944C28.9821 30.312 29.4301 28.88 30.0861 27.648C30.7581 26.416 31.5981 25.392 32.6061 24.576C33.6141 23.744 34.7661 23.12 36.0621 22.704C37.3741 22.272 38.7901 22.056 40.3101 22.056C41.8461 22.056 43.2541 22.288 44.5341 22.752C45.8301 23.2 46.9421 23.848 47.8701 24.696C48.8141 25.528 49.5501 26.544 50.0781 27.744C50.6061 28.944 50.8701 30.296 50.8701 31.8C50.8701 33.08 50.6781 34.264 50.2941 35.352C49.9261 36.44 49.4221 37.48 48.7821 38.472C48.1421 39.464 47.3901 40.432 46.5261 41.376C45.6781 42.304 44.7821 43.248 43.8381 44.208L35.4861 52.752C36.1741 52.56 36.8621 52.408 37.5501 52.296C38.2541 52.184 38.9181 52.128 39.5421 52.128H49.6941Z" fill="white"/>
</svg>
