<svg width="29" height="29" viewBox="0 0 29 29" fill="none" xmlns="http://www.w3.org/2000/svg">
<rect width="29" height="29" rx="5" fill="#2F3D53"/>
<path d="M22.8418 9.68857C23.006 9.48632 22.7839 9.20737 22.5353 9.28521C22.2679 9.36895 22.0758 8.96706 22.25 8.74756C22.3406 8.63351 22.4246 8.51352 22.5014 8.38812C22.6736 8.10723 22.351 7.83538 22.0499 7.96911C21.7446 8.1047 21.4284 8.21765 21.1028 8.30738C20.8491 8.3773 20.5853 8.28183 20.3882 8.10751C19.7813 7.57094 18.9986 7.25 18.1561 7.25C16.236 7.25 14.6903 8.89408 14.6903 10.9096C14.6903 11.333 14.3542 11.7228 13.935 11.6633C12.0459 11.3953 10.3287 10.561 8.93649 9.32592C8.2561 8.72232 7.14756 8.85677 7.14756 9.76631C7.14756 10.6345 7.43794 11.4351 7.91735 12.0624C8.11459 12.3204 7.94165 12.7147 7.6375 12.6007C7.46996 12.538 7.3086 12.4624 7.15596 12.3762C7.14044 12.3674 7.12112 12.3786 7.12112 12.3964C7.12112 13.8328 7.90575 15.0726 9.03846 15.6753C9.25104 15.7884 9.23122 16.1117 8.99042 16.1117C8.69771 16.1117 8.44956 16.4002 8.5833 16.6606C8.74865 16.9825 8.95785 17.276 9.20246 17.5318C9.83855 18.1971 10.1219 19.5894 9.24254 19.8613C8.6181 20.0544 7.95723 20.1583 7.27443 20.1583C7.06728 20.1583 6.97105 20.4448 7.15171 20.5461C8.528 21.3183 10.0947 21.75 11.7647 21.75C18.1466 21.75 21.6356 16.1731 21.6356 11.339C21.6356 11.2971 21.6353 11.2557 21.6346 11.2145C21.6312 10.9965 21.729 10.7895 21.8964 10.6499C22.2414 10.362 22.5564 10.0401 22.8418 9.68857Z" fill="white"/>
</svg>
